<?xml version="1.0" standalone="no"?>
<!DOCTYPE svg PUBLIC "-//W3C//DTD SVG 20010904//EN"
 "http://www.w3.org/TR/2001/REC-SVG-20010904/DTD/svg10.dtd">
<svg version="1.0" xmlns="http://www.w3.org/2000/svg"
 width="2000.000000pt" height="2000.000000pt" viewBox="0 0 2000.000000 2000.000000"
 preserveAspectRatio="xMidYMid meet">

<g transform="translate(0.000000,2000.000000) scale(0.100000,-0.100000)"
fill="#000000" stroke="none">
<path d="M9760 19953 c-2519 -60 -4917 -1072 -6732 -2842 -666 -650 -1231
-1379 -1700 -2196 -123 -215 -321 -603 -426 -835 -455 -1006 -730 -2045 -842
-3170 -50 -515 -55 -1256 -10 -1790 154 -1829 803 -3566 1889 -5057 289 -397
620 -782 996 -1158 283 -284 423 -413 693 -638 1381 -1151 3094 -1922 4852
-2186 543 -81 531 -81 1535 -81 961 0 971 1 1395 60 1359 192 2665 662 3830
1378 2328 1432 3970 3747 4544 6407 88 407 147 800 192 1285 21 221 31 1190
15 1444 -104 1635 -589 3182 -1431 4571 -1157 1908 -2936 3385 -5025 4173
-1011 381 -2041 586 -3170 632 -233 9 -336 10 -605 3z m795 -2513 c1447 -109
2781 -606 3935 -1465 1690 -1259 2778 -3177 2984 -5260 53 -533 46 -1167 -20
-1685 -160 -1276 -637 -2474 -1394 -3504 -758 -1033 -1802 -1881 -2955 -2400
-805 -363 -1600 -566 -2540 -648 -190 -16 -886 -16 -1090 0 -998 81 -1879 317
-2735 733 -1077 524 -2010 1295 -2730 2254 -405 541 -726 1113 -973 1735 -535
1349 -664 2838 -371 4275 355 1738 1331 3305 2742 4404 1089 847 2377 1375
3737 1530 151 17 362 34 555 45 119 7 713 -3 855 -14z"/>
<path d="M12830 11884 c-149 -24 -150 -24 -150 -40 0 -12 7 -14 30 -9 35 8 80
-16 80 -41 0 -12 -244 -859 -265 -921 -3 -9 11 -13 50 -13 l54 0 31 100 c25
80 46 122 110 219 92 140 138 194 199 233 51 32 86 36 99 12 12 -21 13 -19
-69 -275 -38 -118 -69 -229 -69 -246 0 -33 26 -63 55 -63 10 0 37 11 61 25 49
29 139 136 122 146 -6 4 -24 -11 -42 -34 -40 -52 -64 -67 -75 -48 -6 9 15 84
62 220 56 166 70 218 71 269 1 59 -1 66 -28 89 -25 21 -36 24 -73 19 -24 -3
-58 -13 -76 -22 -44 -23 -150 -134 -216 -227 -30 -42 -56 -75 -58 -74 -1 2 43
155 97 342 55 186 100 342 100 347 0 4 -3 8 -7 7 -5 -1 -46 -7 -93 -15z"/>
<path d="M6917 11843 c-15 -14 -5 -23 26 -23 50 0 77 -24 77 -69 0 -43 -202
-736 -231 -793 -21 -42 -63 -68 -107 -68 -17 0 -32 -6 -36 -15 -5 -13 39 -15
359 -15 200 0 366 4 369 9 3 4 26 65 50 135 52 144 44 162 -24 56 -75 -118
-145 -150 -328 -150 -112 0 -142 9 -142 43 0 20 158 571 212 740 28 87 60 118
128 125 33 3 50 9 50 18 0 11 -37 14 -198 14 -109 0 -202 -3 -205 -7z"/>
<path d="M11952 11813 c-7 -3 -19 -18 -28 -35 -26 -50 9 -108 66 -108 29 0 70
44 70 75 0 49 -60 87 -108 68z"/>
<path d="M12427 11672 c-45 -69 -113 -128 -181 -158 -83 -36 -86 -54 -10 -54
44 0 55 -3 51 -14 -15 -39 -146 -476 -151 -504 -13 -73 33 -114 103 -93 28 8
58 31 101 78 33 37 59 71 57 77 -7 22 -24 12 -63 -37 -47 -61 -84 -74 -84 -30
0 15 36 138 78 273 l78 245 52 3 c29 2 52 7 52 12 0 4 3 15 6 24 5 13 -2 16
-44 16 l-50 0 29 92 c16 51 29 96 29 100 0 21 -30 4 -53 -30z"/>
<path d="M7927 11519 c-227 -53 -421 -372 -338 -554 76 -168 291 -164 477 7
69 64 55 80 -23 26 -92 -63 -187 -83 -256 -54 -43 17 -85 68 -93 110 -12 64
-4 71 110 93 177 35 295 103 342 198 20 41 25 63 20 88 -15 80 -113 116 -239
86z m104 -40 c45 -24 43 -93 -6 -158 -51 -70 -163 -128 -283 -146 l-42 -7 23
65 c13 36 38 88 55 115 68 104 187 167 253 131z"/>
<path d="M8600 11521 c-100 -33 -240 -158 -302 -271 -121 -219 -77 -422 88
-406 74 6 128 38 221 129 l82 79 -15 -47 c-8 -27 -14 -70 -14 -97 0 -42 3 -50
24 -59 14 -7 36 -9 51 -5 52 13 161 135 134 151 -5 4 -11 5 -13 4 -1 -2 -14
-23 -29 -46 -30 -47 -57 -57 -57 -20 1 12 38 151 84 310 65 225 80 286 67 283
-9 -3 -35 -10 -57 -15 -34 -9 -44 -17 -56 -49 l-15 -37 -11 25 c-18 46 -57 73
-109 76 -26 2 -59 0 -73 -5z m131 -60 c26 -27 29 -36 29 -94 0 -161 -110 -346
-249 -416 -91 -47 -171 -4 -171 91 0 96 74 258 157 349 96 103 177 127 234 70z"/>
<path d="M9165 11514 c-142 -23 -145 -24 -145 -41 0 -12 7 -14 35 -9 20 4 44
2 56 -5 28 -15 24 -40 -52 -299 -33 -113 -67 -226 -74 -252 l-14 -48 54 0 53
0 36 113 c45 145 156 329 249 415 30 28 61 26 65 -5 8 -56 69 -55 96 2 21 44
24 108 7 129 -48 58 -188 -59 -312 -259 -27 -43 -49 -75 -49 -71 0 8 82 294
95 334 5 14 6 14 -100 -4z"/>
<path d="M9785 11520 c-22 -4 -73 -13 -112 -20 -53 -9 -73 -16 -73 -27 0 -12
7 -14 35 -9 43 8 75 -7 75 -38 0 -19 -35 -146 -145 -518 l-14 -48 52 0 53 0
32 98 c56 172 202 384 311 454 49 31 82 36 100 14 15 -18 12 -31 -70 -282 -38
-116 -69 -225 -69 -241 0 -44 30 -67 76 -58 54 10 193 152 165 169 -4 3 -27
-17 -50 -44 -43 -52 -71 -64 -71 -32 0 10 31 113 70 228 82 244 87 289 41 335
-78 78 -202 3 -370 -222 -33 -45 -61 -78 -61 -73 0 5 20 78 45 163 25 85 45
156 45 158 0 4 -17 2 -65 -7z"/>
<path d="M10775 11509 c-49 -10 -91 -18 -92 -19 -2 0 -3 -9 -3 -20 0 -17 7
-20 44 -20 77 0 96 -45 116 -275 5 -66 10 -168 10 -227 0 -96 2 -108 18 -108
11 0 34 28 63 78 26 42 92 155 149 250 56 95 104 171 106 169 3 -2 13 -100 24
-218 24 -260 27 -279 44 -279 25 0 238 276 317 413 50 84 69 138 69 192 0 71
-65 110 -110 65 -28 -28 -25 -46 15 -86 19 -19 35 -43 35 -54 0 -34 -79 -173
-161 -283 -45 -60 -83 -106 -86 -103 -4 4 -52 476 -53 524 0 12 -6 22 -14 22
-8 0 -81 -111 -162 -247 l-149 -246 -7 59 c-4 32 -11 111 -17 174 -11 136 -38
260 -54 259 -7 -1 -52 -10 -102 -20z"/>
<path d="M11920 11514 c-47 -7 -100 -16 -117 -19 -20 -4 -33 -12 -33 -21 0
-12 8 -13 34 -9 19 4 43 2 56 -5 28 -15 26 -26 -56 -289 -79 -251 -84 -281
-55 -310 38 -38 99 -21 168 47 53 51 77 88 68 103 -5 7 -24 -8 -52 -40 -45
-52 -83 -67 -83 -33 0 10 38 144 85 297 88 286 90 296 78 294 -5 -1 -46 -7
-93 -15z"/>
<path d="M7856 8887 c-466 -1045 -601 -1341 -648 -1417 -57 -94 -127 -154
-208 -177 -54 -16 -60 -21 -60 -45 l0 -28 375 0 375 0 0 30 c0 28 -3 30 -37
30 -20 0 -65 5 -101 11 -128 23 -176 109 -137 245 9 33 42 116 73 187 l56 127
376 0 377 0 76 -177 c98 -229 98 -228 99 -280 1 -78 -57 -113 -186 -113 l-66
0 0 -30 0 -30 530 0 530 0 0 29 c0 26 -4 29 -42 35 -105 17 -168 87 -268 300
-31 67 -230 518 -441 1003 -265 608 -389 882 -399 882 -10 0 -99 -187 -274
-582z m223 -540 c84 -191 154 -354 157 -362 5 -13 -37 -15 -316 -15 -177 0
-320 4 -318 9 12 31 322 720 324 718 1 -1 70 -159 153 -350z"/>
<path d="M10825 9430 c-4 -22 -17 -54 -29 -72 -18 -28 -28 -33 -68 -36 -37 -2
-69 7 -167 48 -167 70 -250 90 -380 90 -228 0 -400 -75 -538 -233 -182 -209
-194 -517 -27 -742 109 -148 199 -213 544 -390 278 -143 330 -175 402 -248 70
-69 100 -133 106 -219 5 -76 -6 -117 -49 -182 -68 -102 -187 -156 -346 -156
-326 0 -593 230 -703 605 -25 88 -27 90 -58 93 l-32 3 0 -410 0 -411 34 0 c28
0 38 6 60 40 31 47 90 80 145 80 22 0 79 -14 128 -31 239 -84 233 -83 423 -83
149 0 185 3 245 21 245 73 419 230 494 443 32 90 40 260 17 348 -67 254 -207
379 -708 632 -241 122 -319 171 -388 246 -63 70 -80 109 -80 188 0 112 66 204
186 258 68 30 226 37 310 13 240 -68 439 -285 495 -537 11 -55 14 -58 42 -58
l29 0 -7 363 c-4 199 -9 365 -12 370 -2 4 -17 7 -33 7 -25 0 -29 -4 -35 -40z"/>
<path d="M12106 8887 c-466 -1045 -601 -1341 -648 -1417 -57 -94 -127 -154
-208 -177 -54 -16 -60 -21 -60 -45 l0 -28 375 0 375 0 0 30 c0 28 -3 30 -37
30 -20 0 -65 5 -101 11 -128 23 -176 109 -137 245 9 33 42 116 73 187 l56 127
376 0 377 0 76 -177 c98 -229 98 -228 99 -280 1 -78 -57 -113 -186 -113 l-66
0 0 -30 0 -30 530 0 530 0 0 29 c0 26 -4 29 -42 35 -105 17 -168 87 -268 300
-31 67 -230 518 -441 1003 -265 608 -389 882 -399 882 -10 0 -99 -187 -274
-582z m223 -540 c84 -191 154 -354 157 -362 5 -13 -37 -15 -316 -15 -177 0
-320 4 -318 9 12 31 322 720 324 718 1 -1 70 -159 153 -350z"/>
<path d="M4390 9391 c0 -28 1 -29 73 -35 90 -9 133 -22 176 -54 64 -48 62 0
59 -1000 l-3 -909 -29 -37 c-40 -53 -99 -76 -197 -76 l-79 0 0 -30 0 -30 575
0 575 0 0 30 0 30 -74 0 c-117 0 -193 42 -217 121 -7 21 -13 201 -16 457 l-6
422 397 0 397 0 -3 -443 -3 -444 -29 -37 c-40 -53 -99 -76 -197 -76 l-79 0 0
-30 0 -30 575 0 575 0 0 30 0 30 -74 0 c-113 0 -185 38 -217 115 -16 38 -25
1486 -11 1702 9 133 11 145 37 179 35 46 91 69 188 78 77 8 77 8 77 37 l0 29
-575 0 -575 0 0 -29 c0 -28 1 -29 73 -35 90 -9 133 -22 176 -54 60 -45 61 -51
61 -487 l0 -395 -395 0 -395 0 1 293 c0 160 4 345 8 409 7 106 11 121 36 153
35 47 91 70 188 79 77 8 77 8 77 37 l0 29 -575 0 -575 0 0 -29z"/>
<path d="M13620 9385 c0 -33 2 -35 34 -35 81 0 156 -45 236 -141 l51 -61 -3
-846 -3 -847 -23 -47 c-40 -80 -106 -117 -224 -125 -78 -6 -78 -6 -78 -34 l0
-29 395 0 395 0 0 29 c0 28 0 28 -72 33 -127 8 -210 66 -245 171 -15 47 -17
123 -21 797 -3 739 -3 745 17 725 10 -11 344 -420 741 -910 624 -770 725 -890
750 -893 l29 -3 3 983 c4 1086 2 1040 68 1120 32 39 88 63 173 74 45 7 47 8
47 40 l0 34 -360 0 -360 0 0 -34 0 -33 68 -5 c86 -6 162 -44 196 -96 43 -66
47 -122 44 -666 l-3 -509 -539 671 -539 672 -388 0 -389 0 0 -35z"/>
</g>
</svg>
